<?xml version="1.0" encoding="UTF-8" standalone="no"?>
<!-- Created with Inkscape (http://www.inkscape.org/) -->

<svg
   width="210mm"
   height="297mm"
   viewBox="0 0 210 297"
   version="1.1"
   id="svg1"
   inkscape:version="1.4 (e7c3feb1, 2024-10-09)"
   sodipodi:docname="GAJ.svg"
   xml:space="preserve"
   xmlns:inkscape="http://www.inkscape.org/namespaces/inkscape"
   xmlns:sodipodi="http://sodipodi.sourceforge.net/DTD/sodipodi-0.dtd"
   xmlns="http://www.w3.org/2000/svg"
   xmlns:svg="http://www.w3.org/2000/svg"><sodipodi:namedview
     id="namedview1"
     pagecolor="#ffffff"
     bordercolor="#000000"
     borderopacity="0.25"
     inkscape:showpageshadow="2"
     inkscape:pageopacity="0.0"
     inkscape:pagecheckerboard="0"
     inkscape:deskcolor="#d1d1d1"
     inkscape:document-units="mm"
     inkscape:zoom="0.26812719"
     inkscape:cx="568.75993"
     inkscape:cy="-31.701373"
     inkscape:window-width="1440"
     inkscape:window-height="900"
     inkscape:window-x="0"
     inkscape:window-y="0"
     inkscape:window-maximized="0"
     inkscape:current-layer="svg1" /><defs
     id="defs1"><clipPath
       clipPathUnits="userSpaceOnUse"
       id="clipPath33"><rect
         style="fill:#000000;stroke:none;stroke-width:0.999995;stroke-linecap:butt;stroke-linejoin:bevel;paint-order:stroke markers fill;stop-color:#000000"
         id="rect33"
         width="46.19186"
         height="80.006783"
         x="74.999985"
         y="399.99661" /></clipPath><clipPath
       clipPathUnits="userSpaceOnUse"
       id="clipPath25"><rect
         style="fill:#ff0000;stroke:none;stroke-width:3;stroke-linecap:square;stroke-linejoin:miter;paint-order:stroke markers fill;stop-color:#000000"
         id="rect25-8"
         width="78"
         height="45.033199"
         x="763.61322"
         y="452.82422" /></clipPath><clipPath
       clipPathUnits="userSpaceOnUse"
       id="clipPath27"><rect
         style="fill:none;stroke:#000000;stroke-width:0.999999;stroke-linecap:butt;stroke-linejoin:bevel;paint-order:stroke markers fill;stop-color:#000000"
         id="rect28-6"
         width="46.160622"
         height="39.922417"
         x="86.574379"
         y="420.06253" /></clipPath><clipPath
       clipPathUnits="userSpaceOnUse"
       id="clipPath51"><path
         id="path51"
         style="stroke-width:0.0999999;stroke-linecap:square;paint-order:markers fill stroke;stop-color:#000000"
         d="m 1806.4991,-753.5228 h 1637.2646 v 66.90533 H 1806.4991 Z" /></clipPath><clipPath
       clipPathUnits="userSpaceOnUse"
       id="clipPath5"><rect
         style="fill:#000000;stroke:#000000;stroke-width:0;stroke-linejoin:bevel;paint-order:stroke markers fill;stop-color:#000000"
         id="rect5-4"
         width="20"
         height="200"
         x="530"
         y="595" /></clipPath><clipPath
       clipPathUnits="userSpaceOnUse"
       id="clipPath55"><path
         id="path55"
         style="stroke-width:0.1;stroke-linecap:square;paint-order:markers fill stroke;stop-color:#000000"
         d="m 1736.6147,-745.57287 h 1589.4765 v 72.46715 H 1736.6147 Z" /></clipPath><clipPath
       clipPathUnits="userSpaceOnUse"
       id="clipPath54"><path
         id="path54"
         style="stroke-width:0.0999999;stroke-linecap:square;paint-order:markers fill stroke;stop-color:#000000"
         d="m 1691.1994,-792.32001 h 1634.8919 v 92.82806 H 1691.1994 Z" /></clipPath><linearGradient
       id="swatch24"
       inkscape:swatch="solid"><stop
         style="stop-color:#f56a6a;stop-opacity:1;"
         offset="0"
         id="stop25" /></linearGradient></defs><g
     inkscape:label="Layer 1"
     inkscape:groupmode="layer"
     id="layer1"
     style="display:inline" /><path
     id="text1"
     style="font-style:normal;font-variant:normal;font-weight:bold;font-stretch:normal;font-size:211.667px;line-height:0.9;font-family:Arial;-inkscape-font-specification:'Arial, Bold';font-variant-ligatures:normal;font-variant-caps:normal;font-variant-numeric:normal;font-variant-east-asian:normal;text-align:center;letter-spacing:-53.27120833px;word-spacing:0px;writing-mode:lr-tb;direction:rtl;text-anchor:middle;mix-blend-mode:normal;fill:#f56a6a;fill-opacity:1;fill-rule:nonzero;stroke-width:1"
     inkscape:label="text1"
     d="m 29.544967,70.158508 c -14.469425,0 -26.5616709,2.514912 -36.2768558,7.544759 -12.7468742,6.545692 -22.4275612,15.950738 -29.0421552,28.215333 -6.614594,12.26456 -9.921875,26.28605 -9.921875,42.06462 0,14.53832 2.962773,28.0086 8.888347,40.41097 5.925573,12.33346 14.77944,21.84189 26.561686,28.52539 11.7822383,6.61459 25.597034,9.92187 41.444498,9.92187 8.259331,0 16.441695,-1.05025 24.549923,-3.10524 l -0.203088,0.52142 h 32.452799 l 7.361308,-20.25871 c -7.9e-5,-0.001 -4.72e-4,-0.002 -5.17e-4,-0.003 -8e-4,-0.0176 0.0022,-0.0351 0.0062,-0.0522 0.0051,-0.024 0.01374,-0.047 0.02274,-0.0698 0.0084,-0.0218 0.0208,-0.0417 0.03307,-0.0615 0.0076,-0.0125 0.01527,-0.0248 0.02377,-0.0367 0.0097,-0.0124 0.01807,-0.0247 0.02687,-0.0383 0.004,-0.006 0.0078,-0.0121 0.01188,-0.0181 0.0021,-0.0129 0.0051,-0.026 0.0078,-0.0388 0.01277,-0.0564 0.0263,-0.11225 0.04186,-0.16795 0.0089,-0.0313 0.02126,-0.0618 0.03514,-0.0909 0.01328,-0.0278 0.03037,-0.0535 0.04651,-0.0796 0.01371,-0.0213 0.02716,-0.0426 0.04134,-0.0636 -0.0024,-0.007 -0.0033,-0.0168 -0.0021,-0.0284 0.0043,-0.0411 0.01976,-0.0802 0.03359,-0.11886 0.01783,-0.0481 0.03824,-0.0951 0.06098,-0.14108 0.0082,-0.0382 0.01647,-0.0764 0.02429,-0.11472 0.0083,-0.0421 0.01602,-0.0842 0.02532,-0.12609 0.0078,-0.0344 0.01465,-0.0686 0.02325,-0.10283 0.0063,-0.023 0.01139,-0.0463 0.01809,-0.0692 0.0052,-0.0163 0.0088,-0.0331 0.01499,-0.0491 0.0043,-0.0103 0.009,-0.0203 0.01344,-0.0305 0.0071,-0.0159 0.01429,-0.0321 0.02119,-0.0481 0.01238,-0.0277 0.02369,-0.0556 0.03617,-0.0832 0.01124,-0.0266 0.02165,-0.0536 0.03411,-0.0796 0.0087,-0.017 0.01811,-0.0338 0.02791,-0.0501 v -0.001 c 0.0064,-0.0107 0.01355,-0.0182 0.02067,-0.0227 h 5.17e-4 l 4.49533,-12.37237 h 59.23256 c 1.53624,9.5634 4.93932,17.30783 10.17406,23.26835 0.0768,0.011 0.16433,0.0578 0.2465,0.15244 0.0819,0.0942 0.15376,0.19576 0.22996,0.29456 0.0989,0.13619 0.20804,0.2645 0.32814,0.3824 0.0889,0.0808 0.17103,0.1688 0.25373,0.2558 0.0134,0.014 0.0273,0.0274 0.0408,0.0413 0.0346,0.0331 0.0739,0.0609 0.10697,0.0956 0.0453,0.0483 0.0883,0.0985 0.13229,0.1478 0.0934,0.0897 0.18499,0.18105 0.27595,0.27337 0.092,0.0935 0.18427,0.1873 0.27647,0.2806 0.0759,0.0767 0.15221,0.15263 0.22841,0.22893 0.008,0.007 0.0152,0.0152 0.0227,0.0227 0.14918,0.12548 0.30529,0.24285 0.44803,0.37569 0.29683,0.27203 0.59019,0.54769 0.89504,0.8108 0.25896,0.21632 0.53176,0.41509 0.80822,0.60824 0.23346,0.15197 0.46879,0.30142 0.70693,0.44596 0.26198,0.15402 0.51211,0.32467 0.75654,0.50488 0.27927,0.21486 0.5486,0.44288 0.81597,0.67231 0.28248,0.23945 0.56917,0.47359 0.86403,0.69763 0.36886,0.28859 0.72769,0.59007 1.09503,0.88057 0.4181,0.31351 0.85649,0.59788 1.27434,0.91157 0.0144,0.0117 0.0301,0.0214 0.0444,0.0331 0.0705,0.002 0.15248,0.0286 0.24081,0.0904 0.009,0.006 0.0184,0.0126 0.0274,0.0186 0.0733,0.0562 0.13569,0.12366 0.20309,0.18656 0.0922,0.0826 0.1893,0.15787 0.30489,0.20567 0.20433,0.0798 0.41558,0.13933 0.62839,0.19223 0.22808,0.0568 0.45478,0.12083 0.68884,0.14883 0.14176,0.0166 0.28643,0.0291 0.40825,0.11162 0.12593,0.0781 0.24933,0.16001 0.38447,0.22221 0.24684,0.12043 0.505,0.20735 0.77566,0.25735 0.20733,0.0467 0.41451,0.0945 0.62064,0.14624 0.1277,0.0316 0.25598,0.0613 0.38705,0.0749 0.0859,0.0149 0.1757,0.0139 0.2465,0.0744 0.0556,0.0412 0.10976,0.0851 0.15606,0.13694 0.0664,0.0675 0.14124,0.1266 0.22014,0.1788 0.1284,0.0777 0.26167,0.14407 0.40618,0.18707 0.1387,0.0434 0.27719,0.087 0.41703,0.12661 0.10431,0.0279 0.20989,0.0519 0.31316,0.0837 0.097,0.0307 0.19359,0.0628 0.28939,0.0972 0.0555,0.0197 0.11078,0.0414 0.16278,0.0692 0.0673,0.0215 0.13328,0.0464 0.19688,0.0775 0.0889,0.0324 0.17414,0.0735 0.26304,0.10593 0.0768,0.0288 0.15523,0.0535 0.23513,0.0718 v 5.2e-4 c 0.1574,0.0361 0.24698,0.1137 0.2806,0.19637 0.0815,0.0204 0.16259,0.0427 0.2036,0.0853 5.23315,1.60826 11.08367,2.46961 17.64596,2.46961 12.74687,0 23.01322,-2.65271 30.79915,-7.95817 7.78593,-5.37436 13.16026,-12.47123 16.12305,-21.29069 2.20486,-6.7524 3.30729,-16.39863 3.30729,-28.9388 V 72.74233 h -30.4891 v 97.87516 c 0,12.26456 -1.41249,20.36051 -4.23747,24.28793 -2.82498,3.85851 -7.6481,5.78776 -14.4694,5.78776 -3.58826,0 -6.675,-0.79245 -9.29039,-2.32958 l -9.60561,-23.99026 c -0.004,-0.0865 -0.0141,-0.15484 -0.0176,-0.24185 l -0.0765,0.009 L 146.9099,72.74233 H 114.55993 L 87.18641,143.02228 H 30.061731 v 25.52816 h 35.036621 v 19.22363 c -4.616435,3.5829 -10.163021,6.64903 -16.639811,9.1984 -6.407888,2.48048 -12.815745,3.72071 -19.223633,3.72071 -12.95358,0 -23.4266364,-4.47861 -31.4192708,-13.43588 -7.9926342,-9.02616 -11.9889322,-22.53089 -11.9889322,-40.51432 0,-16.67429 3.927396,-29.24885 11.7822265,-37.72379 7.9237324,-8.47495 18.5690435,-12.712407 31.9360355,-12.712407 8.819458,0 16.157488,2.170543 22.01416,6.511227 5.925574,4.27193 9.956322,10.12857 12.092285,17.56999 l 30.385742,-5.68441 C 91.005465,100.78538 84.184198,89.898918 73.573287,82.044088 63.031278,74.120355 48.355218,70.158508 29.544967,70.158508 Z m 100.827953,37.930502 20.8778,56.22396 h -41.34167 z m 41.31996,109.25948 c -0.01,0.005 -0.0196,0.0101 -0.0295,0.015 v -5.2e-4 c -0.005,0.003 -0.008,0.005 -0.0124,0.007 l 0.006,0.0155 c 0.006,-0.006 0.0123,-0.0128 0.0186,-0.0191 0.006,-0.006 0.0113,-0.0119 0.0171,-0.0176 z m 7.01714,4.53202 c -0.005,0.002 -0.002,0.003 0.004,0.004 0.003,-8.8e-4 0.005,-0.002 0.008,-0.003 -0.004,-5.7e-4 -0.009,-0.002 -0.0119,-0.001 z m -0.16846,0.20413 c 0.02,0.001 0.0399,0.003 0.0599,0.004 -0.0122,-0.007 -0.0433,-0.001 -0.0599,-0.004 z m -2.58279,0.094 -0.006,0.006 c 0.0128,0.0119 0.0261,0.0223 0.0388,0.0341 -0.0106,-0.0138 -0.0223,-0.0261 -0.0331,-0.0398 z m 0.64337,0.10232 c -0.008,0.01 -0.0143,0.0202 -0.0217,0.03 0.003,0.004 0.006,0.008 0.009,0.0119 0.005,-0.0139 0.009,-0.028 0.0129,-0.0418 z m 7.54373,1.03714 c 8.5e-4,0.005 0.002,0.01 0.003,0.0139 0.0926,0.014 0.18611,0.0233 0.27802,0.0419 -0.002,-0.002 -0.004,-0.004 -0.007,-0.006 -0.008,-8.4e-4 -0.0226,-0.004 -0.061,-0.009 -0.0718,-0.008 -0.14167,-0.0267 -0.21239,-0.0408 z m -1.41025,0.74466 c -0.007,4.6e-4 -0.0132,0.002 -0.0196,0.005 0.003,4.4e-4 0.007,-1.1e-4 0.01,0.002 4e-4,0 0.0314,-0.004 0.0305,-0.004 -0.007,-0.003 -0.0138,-0.003 -0.0207,-0.003 z m 0.29403,0.16433 v 5.2e-4 l -0.001,5.1e-4 c 3.3e-4,2e-4 8.8e-4,3.3e-4 0.001,5.2e-4 -5.8e-4,0.008 -6.4e-4,0.015 -0.002,0.0227 -6.6e-4,0.002 -0.001,0.005 -0.002,0.007 h 0.0543 c -0.0167,-0.0101 -0.0334,-0.0211 -0.0501,-0.031 z" /></svg>
